<svg xmlns="http://www.w3.org/2000/svg" style="background-color: rgb(255, 255, 255);" xmlns:xlink="http://www.w3.org/1999/xlink" width="765px" height="411px" version="1.1"><defs/><g transform="translate(0.5,0.5)"><rect x="167" y="320" width="110" height="88" fill="#7acff5" stroke="#000000" pointer-events="none"/><path d="M 167 338 L 277 338" fill="none" stroke="#000000" stroke-miterlimit="10" pointer-events="none"/><g fill="#000000" font-family="Helvetica" font-weight="bold" text-anchor="middle" font-size="12px"><text x="221.5" y="332.5">House</text></g><g fill="#000000" font-family="Helvetica" font-size="12px"><text x="173.5" y="352.5">-proxy-address</text></g><g fill="#000000" font-family="Helvetica" font-size="12px"><text x="173.5" y="368.5">-proxy-username</text></g><g fill="#000000" font-family="Helvetica" font-size="12px"><text x="173.5" y="384.5">-proxy-password</text></g><rect x="332" y="319" width="112" height="89" fill="#7acff5" stroke="#000000" pointer-events="none"/><path d="M 332 337 L 444 337" fill="none" stroke="#000000" stroke-miterlimit="10" pointer-events="none"/><g fill="#000000" font-family="Helvetica" font-weight="bold" text-anchor="middle" font-size="12px"><text x="387.5" y="331.5">Room</text></g><rect x="496" y="318" width="112" height="92" fill="#7acff5" stroke="#000000" pointer-events="none"/><path d="M 496 336 L 608 336" fill="none" stroke="#000000" stroke-miterlimit="10" pointer-events="none"/><g fill="#000000" font-family="Helvetica" font-weight="bold" text-anchor="middle" font-size="12px"><text x="551.5" y="330.5">Device</text></g><g fill="#000000" font-family="Helvetica" font-size="12px"><text x="502.5" y="352.5">+moveToRoom()</text></g><rect x="655" y="318" width="109" height="91" fill="#7acff5" stroke="#000000" pointer-events="none"/><path d="M 655 336 L 764 336" fill="none" stroke="#000000" stroke-miterlimit="10" pointer-events="none"/><g fill="#000000" font-family="Helvetica" font-weight="bold" text-anchor="middle" font-size="12px"><text x="709" y="330.5">Function</text></g><g fill="#000000" font-family="Helvetica" font-size="12px"><text x="661.5" y="352.5">+changeState()</text></g><g fill="#000000" font-family="Helvetica" font-size="12px"><text x="661.5" y="368.5">+showState()</text></g><rect x="0" y="319" width="106" height="90" fill="#7acff5" stroke="#000000" pointer-events="none"/><path d="M 0 337 L 106 337" fill="none" stroke="#000000" stroke-miterlimit="10" pointer-events="none"/><g fill="#000000" font-family="Helvetica" font-weight="bold" text-anchor="middle" font-size="12px"><text x="52.5" y="331.5">User</text></g><g fill="#000000" font-family="Helvetica" font-size="12px"><text x="6.5" y="351.5">-username</text></g><g fill="#000000" font-family="Helvetica" font-size="12px"><text x="6.5" y="367.5">-password</text></g><rect x="322" y="0" width="82" height="174" fill="#7acff5" stroke="#000000" pointer-events="none"/><path d="M 322 18 L 404 18" fill="none" stroke="#000000" stroke-miterlimit="10" pointer-events="none"/><path d="M 322 71 L 404 71" fill="none" stroke="#000000" stroke-miterlimit="10" pointer-events="none"/><g fill="#000000" font-family="Helvetica" font-weight="bold" text-anchor="middle" font-size="12px"><text x="362.5" y="12.5">Root</text></g><g fill="#000000" font-family="Helvetica" font-size="12px"><text x="328.5" y="32.5">-name</text></g><g fill="#000000" font-family="Helvetica" font-size="12px"><text x="328.5" y="48.5">-id</text></g><g fill="#000000" font-family="Helvetica" font-size="12px"><text x="328.5" y="64.5">-type</text></g><g fill="#000000" font-family="Helvetica" font-size="12px"><text x="328.5" y="98.5">+create()</text></g><g fill="#000000" font-family="Helvetica" font-size="12px"><text x="328.5" y="114.5">+save()</text></g><g fill="#000000" font-family="Helvetica" font-size="12px"><text x="328.5" y="130.5">+modify()</text></g><g fill="#000000" font-family="Helvetica" font-size="12px"><text x="328.5" y="146.5">+delete()</text></g><path d="M 363 187.12 L 363 234 Q 363 244 353 244 L 50 244 Q 40 244 40 254 L 40 319" fill="none" stroke="#000000" stroke-miterlimit="10" pointer-events="none"/><path d="M 363 175.12 L 369 187.12 L 357 187.12 Z" fill="none" stroke="#000000" stroke-miterlimit="10" pointer-events="none"/><path d="M 363 187.12 L 363 234 Q 363 244 353 244 L 232 244 Q 222 244 222 254 L 222 320" fill="none" stroke="#000000" stroke-miterlimit="10" pointer-events="none"/><path d="M 363 175.12 L 369 187.12 L 357 187.12 Z" fill="none" stroke="#000000" stroke-miterlimit="10" pointer-events="none"/><path d="M 363 187.12 L 363 237 Q 363 247 373 247 L 380.5 247 Q 388 247 388 257 L 388 319" fill="none" stroke="#000000" stroke-miterlimit="10" pointer-events="none"/><path d="M 363 175.12 L 369 187.12 L 357 187.12 Z" fill="none" stroke="#000000" stroke-miterlimit="10" pointer-events="none"/><path d="M 363 187.12 L 363 236 Q 363 246 373 246 L 542 246 Q 552 246 552 256 L 552 318" fill="none" stroke="#000000" stroke-miterlimit="10" pointer-events="none"/><path d="M 363 175.12 L 369 187.12 L 357 187.12 Z" fill="none" stroke="#000000" stroke-miterlimit="10" pointer-events="none"/><path d="M 363 187.12 L 363 236 Q 363 246 373 246 L 700 246 Q 710 246 710 256 L 710 318" fill="none" stroke="#000000" stroke-miterlimit="10" pointer-events="none"/><path d="M 363 175.12 L 369 187.12 L 357 187.12 Z" fill="none" stroke="#000000" stroke-miterlimit="10" pointer-events="none"/><path d="M 290.71 364 L 297.85 364 Q 305 364 315 364 L 332 364" fill="none" stroke="#000000" stroke-miterlimit="10" pointer-events="none"/><path d="M 277.71 364 L 284.21 357.5 L 290.71 364 L 284.21 370.5 Z" fill="#000000" stroke="#000000" stroke-miterlimit="10" pointer-events="none"/><path d="M 457.71 364 L 463.85 364 Q 470 364 480 364 L 496 364" fill="none" stroke="#000000" stroke-miterlimit="10" pointer-events="none"/><path d="M 444.71 364 L 451.21 357.5 L 457.71 364 L 451.21 370.5 Z" fill="#000000" stroke="#000000" stroke-miterlimit="10" pointer-events="none"/><path d="M 621.71 364 L 626.85 364 Q 632 364 642 364 L 655 364" fill="none" stroke="#000000" stroke-miterlimit="10" pointer-events="none"/><path d="M 608.71 364 L 615.21 357.5 L 621.71 364 L 615.21 370.5 Z" fill="#000000" stroke="#000000" stroke-miterlimit="10" pointer-events="none"/><path d="M 363 187.12 L 363 234 Q 363 244 353 244 L 232 244 Q 222 244 222 254 L 222 320" fill="none" stroke="#000000" stroke-miterlimit="10" pointer-events="none"/><path d="M 363 175.12 L 369 187.12 L 357 187.12 Z" fill="none" stroke="#000000" stroke-miterlimit="10" pointer-events="none"/><path d="M 290.71 364 L 297.85 364 Q 305 364 315 364 L 332 364" fill="none" stroke="#000000" stroke-miterlimit="10" pointer-events="none"/><path d="M 277.71 364 L 284.21 357.5 L 290.71 364 L 284.21 370.5 Z" fill="#000000" stroke="#000000" stroke-miterlimit="10" pointer-events="none"/><path d="M 363 187.12 L 363 237 Q 363 247 373 247 L 380.5 247 Q 388 247 388 257 L 388 319" fill="none" stroke="#000000" stroke-miterlimit="10" pointer-events="none"/><path d="M 363 175.12 L 369 187.12 L 357 187.12 Z" fill="none" stroke="#000000" stroke-miterlimit="10" pointer-events="none"/><path d="M 290.71 364 L 297.85 364 Q 305 364 315 364 L 332 364" fill="none" stroke="#000000" stroke-miterlimit="10" pointer-events="none"/><path d="M 277.71 364 L 284.21 357.5 L 290.71 364 L 284.21 370.5 Z" fill="#000000" stroke="#000000" stroke-miterlimit="10" pointer-events="none"/><path d="M 457.71 364 L 463.85 364 Q 470 364 480 364 L 496 364" fill="none" stroke="#000000" stroke-miterlimit="10" pointer-events="none"/><path d="M 444.71 364 L 451.21 357.5 L 457.71 364 L 451.21 370.5 Z" fill="#000000" stroke="#000000" stroke-miterlimit="10" pointer-events="none"/><path d="M 363 187.12 L 363 236 Q 363 246 373 246 L 542 246 Q 552 246 552 256 L 552 318" fill="none" stroke="#000000" stroke-miterlimit="10" pointer-events="none"/><path d="M 363 175.12 L 369 187.12 L 357 187.12 Z" fill="none" stroke="#000000" stroke-miterlimit="10" pointer-events="none"/><path d="M 457.71 364 L 463.85 364 Q 470 364 480 364 L 496 364" fill="none" stroke="#000000" stroke-miterlimit="10" pointer-events="none"/><path d="M 444.71 364 L 451.21 357.5 L 457.71 364 L 451.21 370.5 Z" fill="#000000" stroke="#000000" stroke-miterlimit="10" pointer-events="none"/><path d="M 621.71 364 L 626.85 364 Q 632 364 642 364 L 655 364" fill="none" stroke="#000000" stroke-miterlimit="10" pointer-events="none"/><path d="M 608.71 364 L 615.21 357.5 L 621.71 364 L 615.21 370.5 Z" fill="#000000" stroke="#000000" stroke-miterlimit="10" pointer-events="none"/><path d="M 363 187.12 L 363 236 Q 363 246 373 246 L 700 246 Q 710 246 710 256 L 710 318" fill="none" stroke="#000000" stroke-miterlimit="10" pointer-events="none"/><path d="M 363 175.12 L 369 187.12 L 357 187.12 Z" fill="none" stroke="#000000" stroke-miterlimit="10" pointer-events="none"/><path d="M 621.71 364 L 626.85 364 Q 632 364 642 364 L 655 364" fill="none" stroke="#000000" stroke-miterlimit="10" pointer-events="none"/><path d="M 608.71 364 L 615.21 357.5 L 621.71 364 L 615.21 370.5 Z" fill="#000000" stroke="#000000" stroke-miterlimit="10" pointer-events="none"/><path d="M 363 187.12 L 363 234 Q 363 244 353 244 L 50 244 Q 40 244 40 254 L 40 319" fill="none" stroke="#000000" stroke-miterlimit="10" pointer-events="none"/><path d="M 363 175.12 L 369 187.12 L 357 187.12 Z" fill="none" stroke="#000000" stroke-miterlimit="10" pointer-events="none"/><path d="M 363 187.12 L 363 234 Q 363 244 353 244 L 50 244 Q 40 244 40 254 L 40 319" fill="none" stroke="#000000" stroke-miterlimit="10" pointer-events="none"/><path d="M 363 175.12 L 369 187.12 L 357 187.12 Z" fill="none" stroke="#000000" stroke-miterlimit="10" pointer-events="none"/><path d="M 363 187.12 L 363 234 Q 363 244 353 244 L 232 244 Q 222 244 222 254 L 222 320" fill="none" stroke="#000000" stroke-miterlimit="10" pointer-events="none"/><path d="M 363 175.12 L 369 187.12 L 357 187.12 Z" fill="none" stroke="#000000" stroke-miterlimit="10" pointer-events="none"/><path d="M 363 187.12 L 363 237 Q 363 247 373 247 L 380.5 247 Q 388 247 388 257 L 388 319" fill="none" stroke="#000000" stroke-miterlimit="10" pointer-events="none"/><path d="M 363 175.12 L 369 187.12 L 357 187.12 Z" fill="none" stroke="#000000" stroke-miterlimit="10" pointer-events="none"/><path d="M 363 187.12 L 363 236 Q 363 246 373 246 L 542 246 Q 552 246 552 256 L 552 318" fill="none" stroke="#000000" stroke-miterlimit="10" pointer-events="none"/><path d="M 363 175.12 L 369 187.12 L 357 187.12 Z" fill="none" stroke="#000000" stroke-miterlimit="10" pointer-events="none"/><path d="M 363 187.12 L 363 236 Q 363 246 373 246 L 700 246 Q 710 246 710 256 L 710 318" fill="none" stroke="#000000" stroke-miterlimit="10" pointer-events="none"/><path d="M 363 175.12 L 369 187.12 L 357 187.12 Z" fill="none" stroke="#000000" stroke-miterlimit="10" pointer-events="none"/></g></svg>